<svg width="20" height="25" viewBox="0 0 20 25" fill="none" xmlns="http://www.w3.org/2000/svg">
<path d="M11.3692 21.3563C11.9544 21.3746 12.5288 21.5262 13.0533 21.8007H13.0848C13.523 22.1806 13.5975 22.8585 13.2532 23.3341C12.6265 24.2871 11.6236 24.888 10.5272 24.9675C9.40081 25.1102 8.26646 24.7789 7.3697 24.0453C6.90851 23.7092 6.6088 23.1778 6.54874 22.5897C6.54874 21.9674 7.09605 21.6785 7.60126 21.5563C8.19299 21.4239 8.79617 21.3568 9.40105 21.3563H11.3692ZM10.0431 0C13.6848 0 17.4422 2.8001 17.8317 6.85579C17.8948 7.68915 17.8317 8.55585 17.8948 9.40032C18.1015 10.4893 18.5771 11.5013 19.2736 12.3338C19.7066 13.0179 19.9574 13.8123 19.9999 14.6338V14.8894C20.0063 15.998 19.6324 17.0716 18.9473 17.9117C18.079 18.8982 16.9008 19.5181 15.6319 19.6562C11.883 20.1673 8.08739 20.1673 4.33847 19.6562C3.05465 19.5286 1.85988 18.9079 0.980959 17.9117C0.317326 17.0635 -0.0306743 15.989 0.00212391 14.8894V14.6338C0.0431976 13.8153 0.2863 13.0224 0.707306 12.3338C1.40688 11.5006 1.88927 10.4897 2.10715 9.40032C2.1703 8.55585 2.10715 7.70026 2.1703 6.85579C2.57025 2.8001 6.25404 0 9.93783 0H10.0431Z" fill="black"/>
</svg>
